<svg xmlns="http://www.w3.org/2000/svg" width="1600" height="820" viewBox="0 0 1600 820">
  <defs>
    <marker id="arrow" viewBox="0 0 12 12" refX="10" refY="6" markerWidth="10" markerHeight="10" orient="auto-start-reverse">
      <path d="M2,2 L10,6 L2,10 Z" fill="#1f2937"/>
    </marker>
    <marker id="arrowSoft" viewBox="0 0 12 12" refX="10" refY="6" markerWidth="9" markerHeight="9" orient="auto-start-reverse">
      <path d="M2,2 L10,6 L2,10 Z" fill="#64748b"/>
    </marker>
    <style>
      svg { background: #fbfcff; }
      .title { font: 700 36px "Noto Sans CJK SC", "Microsoft YaHei", Arial, sans-serif; fill: #111827; }
      .panelTitle { font: 700 27px "Noto Sans CJK SC", "Microsoft YaHei", Arial, sans-serif; fill: #111827; }
      .label { font: 700 26px "Noto Sans CJK SC", "Microsoft YaHei", Arial, sans-serif; fill: #111827; }
      .text { font: 22px "Noto Sans CJK SC", "Microsoft YaHei", Arial, sans-serif; fill: #111827; }
      .small { font: 20px "Noto Sans CJK SC", "Microsoft YaHei", Arial, sans-serif; fill: #475569; }
      .note { font: 700 22px "Noto Sans CJK SC", "Microsoft YaHei", Arial, sans-serif; fill: #b91c1c; }
      .badgeText { font: 700 21px "Noto Sans CJK SC", "Microsoft YaHei", Arial, sans-serif; fill: #111827; }
      .panel { fill: #f8fafc; stroke: #64748b; stroke-width: 1.8; }
      .panelBlue { fill: #eef5ff; stroke: #64748b; stroke-width: 1.8; }
      .panelGreen { fill: #effaf3; stroke: #64748b; stroke-width: 1.8; }
      .panelWarm { fill: #fff7ed; stroke: #64748b; stroke-width: 1.8; }
      .box { fill: #ffffff; stroke: #334155; stroke-width: 2; }
      .boxBlue { fill: #eef5ff; stroke: #2563eb; stroke-width: 2; }
      .boxGreen { fill: #ecfdf5; stroke: #059669; stroke-width: 2; }
      .boxWarm { fill: #fff7ed; stroke: #f59e0b; stroke-width: 2; }
      .boxRed { fill: #fff1f2; stroke: #ef4444; stroke-width: 2; }
      .boxPurple { fill: #f1efff; stroke: #6d5bd0; stroke-width: 2; }
      .accentBlue { fill: #3b82f6; stroke: none; }
      .accentGreen { fill: #10b981; stroke: none; }
      .accentWarm { fill: #f59e0b; stroke: none; }
      .accentRed { fill: #ef4444; stroke: none; }
      .badge { fill: #ffffff; stroke: #334155; stroke-width: 1.5; }
      .arrow { fill: none; stroke: #1f2937; stroke-width: 3; marker-end: url(#arrow); }
      .arrowSoft { fill: none; stroke: #64748b; stroke-width: 2.4; stroke-dasharray: 8 8; marker-end: url(#arrowSoft); }
      .thin { fill: none; stroke: #94a3b8; stroke-width: 1.6; }
      .divider { stroke: #111827; stroke-width: 2; }
    </style>
  </defs>
  <rect x="0" y="0" width="1600" height="820" fill="#fbfcff"/>
  <text x="800.0" y="42" class="title" text-anchor="middle">富元信息融合与强化学习闭环优化</text>
  <line x1="44" y1="62" x2="1556" y2="62" class="divider"/>
  <rect x="52" y="104" width="350" height="520" rx="8" class="panel"/>
<circle cx="83" cy="136" r="17" class="badge"/>
<text x="83" y="143" class="badgeText" text-anchor="middle">1</text>
<text x="110" y="144" class="panelTitle" text-anchor="start">候选记录</text>
<rect x="92" y="190" width="270" height="92" rx="8" class="boxBlue"/>
<rect x="92" y="190" width="8" height="92" rx="4" class="accentBlue"/>
<text x="120" y="228" class="label" text-anchor="start">候选框</text>
<text x="120" y="262" class="small" text-anchor="start">类别 / 坐标 / 原始分</text>
<rect x="92" y="338" width="270" height="92" rx="8" class="boxWarm"/>
<rect x="92" y="338" width="8" height="92" rx="4" class="accentWarm"/>
<text x="120" y="376" class="label" text-anchor="start">提示来源</text>
<text x="120" y="410" class="small" text-anchor="start">基础提示 / 别名提示</text>
<rect x="92" y="486" width="270" height="92" rx="8" class="boxGreen"/>
<rect x="92" y="486" width="8" height="92" rx="4" class="accentGreen"/>
<text x="120" y="524" class="label" text-anchor="start">查询上下文</text>
<text x="120" y="558" class="small" text-anchor="start">query text / class prior</text>
<rect x="452" y="104" width="350" height="520" rx="8" class="panelBlue"/>
<circle cx="483" cy="136" r="17" class="badge"/>
<text x="483" y="143" class="badgeText" text-anchor="middle">2</text>
<text x="510" y="144" class="panelTitle" text-anchor="start">富元信息特征</text>
<rect x="492" y="168" width="270" height="84" rx="8" class="boxGreen"/>
<text x="520" y="206" class="label" text-anchor="start">分数特征</text>
<text x="520" y="240" class="small" text-anchor="start">gdino / query / alias</text>
<rect x="492" y="286" width="270" height="84" rx="8" class="boxWarm"/>
<text x="520" y="324" class="label" text-anchor="start">来源特征</text>
<text x="520" y="358" class="small" text-anchor="start">来源类型 / 提示编号</text>
<rect x="492" y="404" width="270" height="84" rx="8" class="boxBlue"/>
<text x="520" y="442" class="label" text-anchor="start">几何特征</text>
<text x="520" y="476" class="small" text-anchor="start">area ratio / rank / size</text>
<rect x="492" y="512" width="270" height="84" rx="8" class="boxRed"/>
<text x="520" y="550" class="label" text-anchor="start">小目标先验</text>
<text x="520" y="584" class="small" text-anchor="start">小面积优先</text>
<rect x="852" y="104" width="350" height="520" rx="8" class="panelWarm"/>
<circle cx="883" cy="136" r="17" class="badge"/>
<text x="883" y="143" class="badgeText" text-anchor="middle">3</text>
<text x="910" y="144" class="panelTitle" text-anchor="start">强化学习融合决策</text>
<rect x="898" y="178" width="258" height="210" rx="8" class="boxPurple"/>
<rect x="898" y="178" width="8" height="210" rx="4" class="accentBlue"/>
<text x="926" y="216" class="label" text-anchor="start">融合评分器</text>
<text x="926" y="250" class="small" text-anchor="start">特征归一化</text>
<text x="926" y="278" class="small" text-anchor="start">小目标重加权</text>
<text x="926" y="306" class="small" text-anchor="start">困难负样本约束</text>
<text x="926" y="334" class="small" text-anchor="start">输出最终置信度</text>
<rect x="898" y="474" width="258" height="90" rx="8" class="box"/>
<rect x="898" y="474" width="8" height="90" rx="4" class="accentRed"/>
<text x="926" y="512" class="label" text-anchor="start">奖励信号</text>
<text x="926" y="546" class="small" text-anchor="start">IoU 命中 / 小目标召回</text>
<rect x="1252" y="104" width="298" height="520" rx="8" class="panelGreen"/>
<circle cx="1283" cy="136" r="17" class="badge"/>
<text x="1283" y="143" class="badgeText" text-anchor="middle">4</text>
<text x="1310" y="144" class="panelTitle" text-anchor="start">输出与闭环</text>
<rect x="1292" y="178" width="218" height="94" rx="8" class="boxGreen"/>
<rect x="1292" y="178" width="8" height="94" rx="4" class="accentGreen"/>
<text x="1320" y="216" class="label" text-anchor="start">融合置信度</text>
<text x="1320" y="250" class="small" text-anchor="start">final score</text>
<rect x="1292" y="348" width="218" height="94" rx="8" class="box"/>
<text x="1320" y="386" class="label" text-anchor="start">类别感知NMS</text>
<text x="1320" y="420" class="small" text-anchor="start">去重 / TopK</text>
<rect x="1292" y="510" width="218" height="80" rx="8" class="boxGreen"/>
<text x="1320" y="548" class="label" text-anchor="start">最终定位框</text>
<text x="1320" y="582" class="small" text-anchor="start">类别 / 框 / 分数</text>
<path d="M362,236 L492,210" class="arrow"/>
<path d="M362,384 L492,328" class="arrow"/>
<path d="M362,532 L492,446" class="arrow"/>
<path d="M762,210 L898,228" class="arrow"/>
<path d="M762,328 L898,280" class="arrow"/>
<path d="M762,446 L898,332" class="arrow"/>
<path d="M762,557 L898,356" class="arrow"/>
<path d="M1156,284 L1292,225" class="arrow"/>
<path d="M1401,272 L1401,348" class="arrow"/>
<path d="M1401,442 L1401,510" class="arrow"/>
<path d="M1401,590 L1220,668 L1028,564" class="arrowSoft"/>
<path d="M1027,474 L1027,388" class="arrow"/>
<text x="1130" y="724" class="note" text-anchor="middle">闭环作用：根据定位收益调节候选排序，而非改变基础检测器结构</text>
</svg>
